<mxfile host="app.diagrams.net" agent="Mozilla/5.0 (Windows NT 10.0; Win64; x64) AppleWebKit/537.36 (KHTML, like Gecko) Chrome/129.0.0.0 Safari/537.36 Edg/129.0.0.0" version="24.7.17">
  <diagram name="Página-1" id="-J29hBydkRmCnbDiWC_q">
    <mxGraphModel dx="1042" dy="565" grid="1" gridSize="10" guides="1" tooltips="1" connect="1" arrows="1" fold="1" page="1" pageScale="1" pageWidth="827" pageHeight="1169" math="0" shadow="0">
      <root>
        <mxCell id="0" />
        <mxCell id="1" parent="0" />
        <mxCell id="cUpWdKY2FXg7uycx74yj-3" style="edgeStyle=orthogonalEdgeStyle;rounded=0;orthogonalLoop=1;jettySize=auto;html=1;exitX=0.5;exitY=1;exitDx=0;exitDy=0;entryX=0.5;entryY=0;entryDx=0;entryDy=0;" edge="1" parent="1" source="cUpWdKY2FXg7uycx74yj-1" target="cUpWdKY2FXg7uycx74yj-2">
          <mxGeometry relative="1" as="geometry" />
        </mxCell>
        <mxCell id="cUpWdKY2FXg7uycx74yj-1" value="" style="ellipse;whiteSpace=wrap;html=1;aspect=fixed;fillColor=#d5e8d4;strokeColor=#82b366;" vertex="1" parent="1">
          <mxGeometry x="370" y="30" width="50" height="50" as="geometry" />
        </mxCell>
        <mxCell id="cUpWdKY2FXg7uycx74yj-6" style="edgeStyle=orthogonalEdgeStyle;rounded=0;orthogonalLoop=1;jettySize=auto;html=1;exitX=0.5;exitY=1;exitDx=0;exitDy=0;entryX=0.5;entryY=0;entryDx=0;entryDy=0;" edge="1" parent="1" source="cUpWdKY2FXg7uycx74yj-2" target="cUpWdKY2FXg7uycx74yj-5">
          <mxGeometry relative="1" as="geometry" />
        </mxCell>
        <mxCell id="cUpWdKY2FXg7uycx74yj-22" style="edgeStyle=orthogonalEdgeStyle;rounded=0;orthogonalLoop=1;jettySize=auto;html=1;exitX=1;exitY=0.5;exitDx=0;exitDy=0;entryX=0;entryY=0.5;entryDx=0;entryDy=0;" edge="1" parent="1" source="cUpWdKY2FXg7uycx74yj-2" target="cUpWdKY2FXg7uycx74yj-21">
          <mxGeometry relative="1" as="geometry" />
        </mxCell>
        <mxCell id="cUpWdKY2FXg7uycx74yj-2" value="Para Linha de 0 a 9" style="shape=hexagon;perimeter=hexagonPerimeter2;whiteSpace=wrap;html=1;fixedSize=1;fillColor=#f5f5f5;fontColor=#333333;strokeColor=#666666;" vertex="1" parent="1">
          <mxGeometry x="335" y="100" width="120" height="80" as="geometry" />
        </mxCell>
        <mxCell id="cUpWdKY2FXg7uycx74yj-11" style="edgeStyle=orthogonalEdgeStyle;rounded=0;orthogonalLoop=1;jettySize=auto;html=1;exitX=0.5;exitY=1;exitDx=0;exitDy=0;exitPerimeter=0;entryX=0.5;entryY=0;entryDx=0;entryDy=0;" edge="1" parent="1" source="cUpWdKY2FXg7uycx74yj-4" target="cUpWdKY2FXg7uycx74yj-10">
          <mxGeometry relative="1" as="geometry" />
        </mxCell>
        <mxCell id="cUpWdKY2FXg7uycx74yj-4" value="Num[Linha][Coluna]" style="shape=card;whiteSpace=wrap;html=1;fillColor=#fff2cc;strokeColor=#d6b656;" vertex="1" parent="1">
          <mxGeometry x="340" y="300" width="110" height="70" as="geometry" />
        </mxCell>
        <mxCell id="cUpWdKY2FXg7uycx74yj-20" style="edgeStyle=orthogonalEdgeStyle;rounded=0;orthogonalLoop=1;jettySize=auto;html=1;exitX=1;exitY=0.5;exitDx=0;exitDy=0;entryX=0;entryY=0.5;entryDx=0;entryDy=0;" edge="1" parent="1" source="cUpWdKY2FXg7uycx74yj-5" target="cUpWdKY2FXg7uycx74yj-2">
          <mxGeometry relative="1" as="geometry">
            <Array as="points">
              <mxPoint x="610" y="240" />
              <mxPoint x="610" y="610" />
              <mxPoint x="280" y="610" />
              <mxPoint x="280" y="140" />
            </Array>
          </mxGeometry>
        </mxCell>
        <mxCell id="cUpWdKY2FXg7uycx74yj-5" value="Para Coluna de 0 a 9" style="shape=hexagon;perimeter=hexagonPerimeter2;whiteSpace=wrap;html=1;fixedSize=1;fillColor=#f5f5f5;fontColor=#333333;strokeColor=#666666;" vertex="1" parent="1">
          <mxGeometry x="335" y="200" width="120" height="80" as="geometry" />
        </mxCell>
        <mxCell id="cUpWdKY2FXg7uycx74yj-7" style="edgeStyle=orthogonalEdgeStyle;rounded=0;orthogonalLoop=1;jettySize=auto;html=1;exitX=0.5;exitY=1;exitDx=0;exitDy=0;entryX=0.5;entryY=0;entryDx=0;entryDy=0;entryPerimeter=0;" edge="1" parent="1" source="cUpWdKY2FXg7uycx74yj-5" target="cUpWdKY2FXg7uycx74yj-4">
          <mxGeometry relative="1" as="geometry" />
        </mxCell>
        <mxCell id="cUpWdKY2FXg7uycx74yj-13" style="edgeStyle=orthogonalEdgeStyle;rounded=0;orthogonalLoop=1;jettySize=auto;html=1;exitX=1;exitY=0.5;exitDx=0;exitDy=0;" edge="1" parent="1" source="cUpWdKY2FXg7uycx74yj-10" target="cUpWdKY2FXg7uycx74yj-12">
          <mxGeometry relative="1" as="geometry" />
        </mxCell>
        <mxCell id="cUpWdKY2FXg7uycx74yj-14" value="V" style="edgeLabel;html=1;align=center;verticalAlign=middle;resizable=0;points=[];" vertex="1" connectable="0" parent="cUpWdKY2FXg7uycx74yj-13">
          <mxGeometry x="-0.6044" relative="1" as="geometry">
            <mxPoint as="offset" />
          </mxGeometry>
        </mxCell>
        <mxCell id="cUpWdKY2FXg7uycx74yj-17" style="edgeStyle=orthogonalEdgeStyle;rounded=0;orthogonalLoop=1;jettySize=auto;html=1;exitX=0;exitY=0.5;exitDx=0;exitDy=0;entryX=0;entryY=0.5;entryDx=0;entryDy=0;" edge="1" parent="1" source="cUpWdKY2FXg7uycx74yj-10" target="cUpWdKY2FXg7uycx74yj-15">
          <mxGeometry relative="1" as="geometry" />
        </mxCell>
        <mxCell id="cUpWdKY2FXg7uycx74yj-18" value="F" style="edgeLabel;html=1;align=center;verticalAlign=middle;resizable=0;points=[];" vertex="1" connectable="0" parent="cUpWdKY2FXg7uycx74yj-17">
          <mxGeometry x="-0.8784" y="-2" relative="1" as="geometry">
            <mxPoint as="offset" />
          </mxGeometry>
        </mxCell>
        <mxCell id="cUpWdKY2FXg7uycx74yj-10" value="Linha == Coluna" style="rhombus;whiteSpace=wrap;html=1;fillColor=#ffe6cc;strokeColor=#d79b00;" vertex="1" parent="1">
          <mxGeometry x="342.5" y="390" width="105" height="80" as="geometry" />
        </mxCell>
        <mxCell id="cUpWdKY2FXg7uycx74yj-16" style="edgeStyle=orthogonalEdgeStyle;rounded=0;orthogonalLoop=1;jettySize=auto;html=1;exitX=0.5;exitY=1;exitDx=0;exitDy=0;entryX=1;entryY=0.5;entryDx=0;entryDy=0;" edge="1" parent="1" source="cUpWdKY2FXg7uycx74yj-12" target="cUpWdKY2FXg7uycx74yj-15">
          <mxGeometry relative="1" as="geometry" />
        </mxCell>
        <mxCell id="cUpWdKY2FXg7uycx74yj-12" value="Media = Num[Linha][Coluna] + Media" style="rounded=0;whiteSpace=wrap;html=1;fillColor=#e1d5e7;strokeColor=#9673a6;" vertex="1" parent="1">
          <mxGeometry x="390" y="480" width="210" height="30" as="geometry" />
        </mxCell>
        <mxCell id="cUpWdKY2FXg7uycx74yj-19" style="edgeStyle=orthogonalEdgeStyle;rounded=0;orthogonalLoop=1;jettySize=auto;html=1;exitX=0.5;exitY=1;exitDx=0;exitDy=0;entryX=0;entryY=0.5;entryDx=0;entryDy=0;" edge="1" parent="1" source="cUpWdKY2FXg7uycx74yj-15" target="cUpWdKY2FXg7uycx74yj-5">
          <mxGeometry relative="1" as="geometry">
            <Array as="points">
              <mxPoint x="395" y="590" />
              <mxPoint x="300" y="590" />
              <mxPoint x="300" y="240" />
            </Array>
          </mxGeometry>
        </mxCell>
        <mxCell id="cUpWdKY2FXg7uycx74yj-15" value="" style="ellipse;whiteSpace=wrap;html=1;aspect=fixed;fillColor=#ffe6cc;strokeColor=#d79b00;" vertex="1" parent="1">
          <mxGeometry x="375" y="530" width="40" height="40" as="geometry" />
        </mxCell>
        <mxCell id="cUpWdKY2FXg7uycx74yj-24" style="edgeStyle=orthogonalEdgeStyle;rounded=0;orthogonalLoop=1;jettySize=auto;html=1;exitX=1;exitY=0.5;exitDx=0;exitDy=0;" edge="1" parent="1" source="cUpWdKY2FXg7uycx74yj-21" target="cUpWdKY2FXg7uycx74yj-23">
          <mxGeometry relative="1" as="geometry" />
        </mxCell>
        <mxCell id="cUpWdKY2FXg7uycx74yj-21" value="Media = Media/10" style="rounded=0;whiteSpace=wrap;html=1;fillColor=#e1d5e7;strokeColor=#9673a6;" vertex="1" parent="1">
          <mxGeometry x="470" y="125" width="110" height="30" as="geometry" />
        </mxCell>
        <mxCell id="cUpWdKY2FXg7uycx74yj-26" style="edgeStyle=orthogonalEdgeStyle;rounded=0;orthogonalLoop=1;jettySize=auto;html=1;exitX=1;exitY=0.5;exitDx=0;exitDy=0;entryX=0;entryY=0.5;entryDx=0;entryDy=0;" edge="1" parent="1" source="cUpWdKY2FXg7uycx74yj-23" target="cUpWdKY2FXg7uycx74yj-25">
          <mxGeometry relative="1" as="geometry" />
        </mxCell>
        <mxCell id="cUpWdKY2FXg7uycx74yj-23" value="&quot; A média dos números na diagonal é &quot;Media" style="shape=document;whiteSpace=wrap;html=1;boundedLbl=1;fillColor=#dae8fc;strokeColor=#6c8ebf;" vertex="1" parent="1">
          <mxGeometry x="600" y="100" width="120" height="80" as="geometry" />
        </mxCell>
        <mxCell id="cUpWdKY2FXg7uycx74yj-25" value="" style="ellipse;whiteSpace=wrap;html=1;aspect=fixed;fillColor=#f8cecc;strokeColor=#b85450;" vertex="1" parent="1">
          <mxGeometry x="750" y="115" width="50" height="50" as="geometry" />
        </mxCell>
      </root>
    </mxGraphModel>
  </diagram>
</mxfile>
